<?xml version="1.0" encoding="utf-8"?>
<!-- Generator: Adobe Illustrator 21.0.1, SVG Export Plug-In . SVG Version: 6.00 Build 0)  -->
<svg version="1.1" id="Calque_1" xmlns="http://www.w3.org/2000/svg" xmlns:xlink="http://www.w3.org/1999/xlink" x="0px" y="0px"
	 viewBox="0 0 22 20.2" style="enable-background:new 0 0 22 20.2;" xml:space="preserve">
<style type="text/css">
	.st0{display:none;}
	.st1{display:inline;}
</style>
<g>
	<path d="M17.3,6.3c-0.2-0.2-0.6-0.2-0.9,0c-0.2,0.2-0.2,0.6,0,0.9C17.2,8,17.6,9,17.6,10s-0.4,2-1.2,2.8c-0.2,0.2-0.2,0.6,0,0.9
		c0.1,0.1,0.3,0.2,0.4,0.2c0.2,0,0.3-0.1,0.4-0.2c1-1,1.5-2.3,1.5-3.7C18.8,8.6,18.3,7.3,17.3,6.3L17.3,6.3z"/>
	<path d="M15.5,7.7c-0.2-0.2-0.5-0.2-0.7,0s-0.2,0.5,0,0.7c0.9,0.9,0.9,2.3,0,3.2c-0.2,0.2-0.2,0.5,0,0.7c0.1,0.1,0.2,0.2,0.4,0.2
		c0.1,0,0.3,0,0.4-0.2C16.8,11.2,16.8,9.1,15.5,7.7z"/>
	<path d="M12.1,3.1c0,0-5.2,4.5-5.7,4.5H4.1C3.6,7.5,3.2,7.9,3.2,8.4v3.2c0,0.5,0.4,1,1,1h1.9c0.6,0,6,4.7,6,4.7
		c0.3,0.3,1.1,0.4,1.1-0.6V3.5C13.2,2.6,12.6,2.5,12.1,3.1z"/>
</g>
<g class="st0">
	<g class="st1">
		<path d="M15.3,13c-0.2,0-0.3-0.1-0.5-0.2c-0.3-0.3-0.3-0.7,0-0.9l4.5-4.5C19.6,7,20,7,20.3,7.3c0.3,0.3,0.3,0.7,0,0.9l-4.5,4.5
			C15.6,12.9,15.4,13,15.3,13z"/>
	</g>
	<g class="st1">
		<path d="M19.8,13c-0.2,0-0.3-0.1-0.5-0.2l-4.5-4.5c-0.3-0.3-0.3-0.7,0-0.9c0.3-0.3,0.7-0.3,0.9,0l4.5,4.5c0.3,0.3,0.3,0.7,0,0.9
			C20.1,12.9,20,13,19.8,13z"/>
	</g>
</g>
</svg>
