<?xml version="1.0" encoding="utf-8"?>
<!-- Generator: Adobe Illustrator 21.0.1, SVG Export Plug-In . SVG Version: 6.00 Build 0)  -->
<svg version="1.1" id="Calque_1" xmlns="http://www.w3.org/2000/svg" xmlns:xlink="http://www.w3.org/1999/xlink" x="0px" y="0px"
	 viewBox="0 0 22 20.2" style="enable-background:new 0 0 22 20.2;" xml:space="preserve">
<g>
	<path d="M12.1,3.1c0,0-5.2,4.5-5.7,4.5H4.1C3.6,7.5,3.2,7.9,3.2,8.4v3.2c0,0.5,0.4,1,1,1h1.9c0.6,0,6,4.7,6,4.7
		c0.3,0.3,1.1,0.4,1.1-0.6V3.5C13.2,2.6,12.6,2.5,12.1,3.1z"/>
</g>
<g>
	<g>
		<path d="M15.6,12.5c-0.1,0-0.3-0.1-0.4-0.2c-0.2-0.2-0.2-0.6,0-0.8L19,7.7c0.2-0.2,0.6-0.2,0.8,0c0.2,0.2,0.2,0.6,0,0.8L16,12.4
			C15.9,12.5,15.8,12.5,15.6,12.5z"/>
	</g>
	<g>
		<path d="M19.4,12.5c-0.1,0-0.3-0.1-0.4-0.2l-3.8-3.8c-0.2-0.2-0.2-0.6,0-0.8s0.6-0.2,0.8,0l3.8,3.8c0.2,0.2,0.2,0.6,0,0.8
			C19.7,12.5,19.6,12.5,19.4,12.5z"/>
	</g>
</g>
</svg>
