<?xml version="1.0" encoding="utf-8"?>
<!-- Generator: Adobe Illustrator 16.0.0, SVG Export Plug-In . SVG Version: 6.00 Build 0)  -->
<!DOCTYPE svg PUBLIC "-//W3C//DTD SVG 1.1//EN" "http://www.w3.org/Graphics/SVG/1.1/DTD/svg11.dtd">
<svg version="1.1"
	 id="Calque_1" xmlns:dc="http://purl.org/dc/elements/1.1/" xmlns:cc="http://creativecommons.org/ns#" xmlns:rdf="http://www.w3.org/1999/02/22-rdf-syntax-ns#" xmlns:svg="http://www.w3.org/2000/svg" xmlns:sodipodi="http://sodipodi.sourceforge.net/DTD/sodipodi-0.dtd" xmlns:inkscape="http://www.inkscape.org/namespaces/inkscape"
	 xmlns="http://www.w3.org/2000/svg" xmlns:xlink="http://www.w3.org/1999/xlink" x="0px" y="0px" width="286px" height="207px"
	 viewBox="335.5 176.5 286 207" enable-background="new 335.5 176.5 286 207" xml:space="preserve">
<g transform="translate(0,-952.36218)">
	<path d="M618.604,1228.5l-89.602-95.199c-2.168-2.264-5.875-2.28-7.963-0.264c-2.123,2.049-2.278,5.811-0.264,7.964l80.676,85.75
		H345.601c-3.093,0-5.6,2.507-5.6,5.6s2.507,5.601,5.6,5.601h255.851l-80.676,85.75c-2.017,2.153-1.893,5.947,0.264,7.964
		c2.153,2.016,5.619,2.065,7.963-0.264l89.602-95.2C620.734,1233.58,620.173,1230.368,618.604,1228.5L618.604,1228.5z"/>
</g>
</svg>
